#!OML:ASF E:\emotionWalksFemale\Project 1\Capture day 1\Session 1\Female1.ASF
:FULLY-SPECIFIED
:DEGREES
64
root 8.65592 15.403 22.8605 -175.667 0.130137 -178.865
lowerback 10.0639 1.05299 1.96351
upperback -4.39574 1.74962 -0.0489706
thorax -10.3267 0.730095 -1.49116
lowerneck -5.58272 -3.31968 -8.16468
upperneck -0.494098 -4.13157 7.99037
head 1.21436 -2.00377 3.96904
rclavicle -1.91476e-015 -8.52289e-015
rhumerus -40.937 5.46586 -84.1476
rradius 38.8613
rwrist 16.0181
rhand -20.0162 -50.2872
rfingers 7.12502
rthumb 6.32419 -80.1728
lclavicle -1.91476e-015 -8.52289e-015
lhumerus -44.4508 3.14405 72.0024
lradius 38.1354
lwrist -9.48029
lhand -9.97862 -33.0036
lfingers 7.12502
lthumb 16.0042 -3.64471
rfemur -7.8144 9.86059 27.114
rtibia 22.1307
rfoot -21.1764 -27.6137
rtoes -10.2516
lfemur -12.8939 -9.07823 -21.0211
ltibia 30.6745
lfoot -28.7594 12.7771
ltoes -26.9495
65
root 8.6556 15.3949 22.847 -175.447 0.126218 -178.774
lowerback 10.2454 1.07483 1.91555
upperback -4.40157 1.78436 0.039014
thorax -10.4441 0.751293 -1.3812
lowerneck -5.57962 -3.33096 -8.33352
upperneck -0.865942 -4.13628 8.16718
head 1.10271 -2.00937 4.06599
rclavicle 6.63e-016 -3.73964e-015
rhumerus -41.088 6.18006 -84.3084
rradius 38.7721
rwrist 15.0903
rhand -17.6622 -52.8977
rfingers 7.12502
rthumb 8.59635 -82.7027
lclavicle 6.63e-016 -3.73964e-015
lhumerus -44.877 3.06244 71.9441
lradius 38.2018
lwrist -9.36043
lhand -10.556 -33.3448
lfingers 7.12502
lthumb 15.4482 -3.94209
rfemur -8.21097 9.71685 27.1766
rtibia 22.5112
rfoot -21.3749 -27.4978
rtoes -10.8762
lfemur -13.3265 -8.85928 -20.8928
ltibia 31.1104
lfoot -28.8665 12.6926
ltoes -27.4151
66
root 8.65417 15.3871 22.834 -175.219 0.0500946 -178.745
lowerback 10.4016 1.06699 1.8258
upperback -4.3808 1.77314 0.146121
thorax -10.5205 0.754683 -1.21717
lowerneck -5.71668 -3.33749 -8.55118
upperneck -1.17371 -4.12419 8.33265
head 1.03671 -2.0043 4.16816
rclavicle -7.4289e-015 3.00662e-015
rhumerus -41.2817 6.8548 -84.4027
rradius 38.7001
rwrist 14.2574
rhand -17.9878 -53.0343
rfingers 7.12502
rthumb 8.28215 -82.8519
lclavicle -7.4289e-015 3.00662e-015
lhumerus -45.2623 3.26283 71.9546
lradius 38.2489
lwrist -9.44436
lhand -10.9195 -33.2135
lfingers 7.12502
lthumb 15.098 -3.78419
rfemur -8.63136 9.64187 27.1814
rtibia 22.9588
rfoot -21.8401 -27.4268
rtoes -10.4841
lfemur -13.7932 -8.66658 -20.8224
ltibia 31.576
lfoot -29.0291 12.5543
ltoes -27.7072
67
root 8.65065 15.3766 22.8199 -174.956 -0.0792472 -178.756
lowerback 10.5555 1.0956 1.7772
upperback -4.39122 1.70878 0.197642
thorax -10.6273 0.683172 -1.11776
lowerneck -5.90051 -3.36184 -8.55252
upperneck -1.42907 -4.14179 8.24113
head 0.984716 -2.01509 4.13323
rclavicle 1.75684e-014 -3.23025e-015
rhumerus -41.4325 7.1802 -84.3953
rradius 38.8513
rwrist 14.5813
rhand -18.1621 -52.7381
rfingers 7.12502
rthumb 8.11387 -82.5624
lclavicle 1.75684e-014 -3.23025e-015
lhumerus -45.7807 3.31317 71.9841
lradius 38.3232
lwrist -9.42261
lhand -11.1525 -33.0373
lfingers 7.12502
lthumb 14.8736 -3.59117
rfemur -9.10536 9.41233 27.1279
rtibia 23.4601
rfoot -22.3374 -27.2426
rtoes -9.41298
lfemur -14.3 -8.51799 -20.7972
ltibia 32.07
lfoot -29.2755 12.3764
ltoes -28.0456
68
root 8.6469 15.3645 22.8056 -174.68 -0.140966 -178.725
lowerback 10.722 1.08239 1.73488
upperback -4.41565 1.6919 0.227253
thorax -10.7566 0.677196 -1.06321
lowerneck -5.96993 -3.34958 -8.55489
upperneck -1.81891 -4.12115 8.26097
head 0.868003 -2.0103 4.14189
rclavicle 3.39332e-016 -3.23025e-015
rhumerus -41.6636 7.40706 -84.5149
rradius 39.0491
rwrist 14.584
rhand -18.4113 -52.5278
rfingers 7.12502
rthumb 7.87339 -82.3612
lclavicle 3.39332e-016 -3.23025e-015
lhumerus -46.3856 3.19187 72.0415
lradius 38.4774
lwrist -9.30086
lhand -11.2935 -32.8885
lfingers 7.12502
lthumb 14.7377 -3.43245
rfemur -9.63807 9.10976 27.1097
rtibia 24.0228
rfoot -22.5871 -27.028
rtoes -8.97869
lfemur -14.8303 -8.28297 -20.7367
ltibia 32.617
lfoot -29.4984 12.2147
ltoes -28.3743
69
root 8.64289 15.3515 22.7887 -174.367 -0.111821 -178.665
lowerback 10.8077 1.10251 1.71823
upperback -4.43733 1.72044 0.24881
thorax -10.8324 0.691484 -1.03858
lowerneck -6.00006 -3.29982 -8.46903
upperneck -2.20091 -4.06071 8.28954
head 0.741129 -1.98734 4.13836
rclavicle -1.07289e-014 -9.79014e-015
rhumerus -41.981 7.53389 -84.6505
rradius 39.0601
rwrist 14.0969
rhand -19.0048 -52.1038
rfingers 7.12502
rthumb 7.30049 -81.9579
lclavicle -1.07289e-014 -9.79014e-015
lhumerus -47.034 2.90681 72.1907
lradius 38.7543
lwrist -9.12815
lhand -11.4565 -32.6224
lfingers 7.12502
lthumb 14.5807 -3.15489
rfemur -10.2497 8.91278 27.1081
rtibia 24.6533
rfoot -22.7848 -26.8137
rtoes -8.85839
lfemur -15.4149 -7.92404 -20.6561
ltibia 33.2535
lfoot -29.7246 12.1063
ltoes -29.0418
70
root 8.63887 15.3378 22.7702 -174.032 -0.0829143 -178.598
lowerback 10.8335 1.15261 1.73666
upperback -4.42355 1.79428 0.277676
thorax -10.8308 0.726937 -1.03291
lowerneck -6.07216 -3.30964 -8.26235
upperneck -2.56184 -4.08234 8.09849
head 0.626631 -2.00648 4.0288
rclavicle 1.18851e-014 -4.96962e-017
rhumerus -42.1639 7.75213 -84.8503
rradius 39.227
rwrist 13.7632
rhand -20.4306 -50.9997
rfingers 7.12502
rthumb 5.92414 -80.8969
lclavicle 1.18851e-014 -4.96962e-017
lhumerus -47.6065 2.43321 72.5191
lradius 39.0369
lwrist -8.75216
lhand -11.6784 -32.5143
lfingers 7.12502
lthumb 14.3669 -3.03147
rfemur -10.9057 8.78383 27.1173
rtibia 25.3477
rfoot -22.8865 -26.6719
rtoes -8.78996
lfemur -16.0667 -7.59995 -20.5599
ltibia 33.9856
lfoot -30.084 11.8648
ltoes -29.2283
71
root 8.63545 15.3206 22.7562 -173.715 -0.200517 -178.509
lowerback 11.0022 1.17672 1.80525
upperback -4.42088 1.84691 0.327514
thorax -10.927 0.7481 -1.03258
lowerneck -6.11182 -3.33913 -8.16869
upperneck -3.0199 -4.1271 7.93907
head 0.480865 -2.03862 3.95397
rclavicle 7.94517e-015 8.54774e-015
rhumerus -42.3834 7.9392 -85.0268
rradius 39.2643
rwrist 12.9252
rhand -12.9596 -55.6608
rfingers 7.12502
rthumb 13.1322 -85.2273
lclavicle 7.94517e-015 8.54774e-015
lhumerus -48.0729 2.26733 72.7626
lradius 39.1085
lwrist -8.60635
lhand -11.5837 -32.5837
lfingers 7.12502
lthumb 14.4581 -3.10738
rfemur -11.588 8.54977 27.1862
rtibia 26.1256
rfoot -22.9469 -26.68
rtoes -9.74961
lfemur -16.806 -7.3739 -20.4243
ltibia 34.798
lfoot -30.338 11.5382
ltoes -29.096
72
root 8.63285 15.2989 22.7466 -173.374 -0.416878 -178.395
lowerback 11.339 1.14005 1.87226
upperback -4.50421 1.82318 0.396229
thorax -11.2235 0.729003 -1.00079
lowerneck -6.22694 -3.32221 -8.23333
upperneck -3.3745 -4.10033 7.96965
head 0.385666 -2.0315 3.97941
rclavicle -1.12438e-015 -2.98177e-016
rhumerus -42.8559 8.19752 -85.3347
rradius 39.4568
rwrist 11.8429
rhand -16.6258 -54.2752
rfingers 7.12502
rthumb 9.59643 -84.0367
lclavicle -1.12438e-015 -2.98177e-016
lhumerus -48.6702 2.434 72.8494
lradius 39.1182
lwrist -8.754
lhand -11.4149 -32.5169
lfingers 7.12502
lthumb 14.6208 -3.05227
rfemur -12.3706 8.22746 27.2988
rtibia 27.0101
rfoot -23.2213 -26.6629
rtoes -10.3468
lfemur -17.6481 -7.18347 -20.2449
ltibia 35.6661
lfoot -30.3184 11.3348
ltoes -29.5292
